<svg xmlns="http://www.w3.org/2000/svg" width="20" height="20" viewBox="0 0 32 32"><path fill="#fff" opacity=".54" d="M28.62 9.399c-.597-1.021-1.234-1.986-1.796-2.718-.828-1.079-1.316-1.461-1.868-1.461-.523 0-.948.366-1.426.916-.352.405-.771.966-1.212 1.624a31.784 31.784 0 0 0-1.759 2.965 62.943 62.943 0 0 0-1.461-2.643c-1.203-2.059-2.486-4.001-3.613-5.47C13.637.203 12.943.002 12.437.002s-1.201.202-3.049 2.611c-1.127 1.469-2.41 3.411-3.612 5.47C4.33 10.557.968 16.722.968 20.534c0 6.324 5.145 11.469 11.469 11.469 5.934 0 10.829-4.529 11.411-10.312a6.082 6.082 0 0 0 7.183-5.973c0-1.906-1.511-4.776-2.411-6.316zM12.438 30.125c-5.29 0-9.594-4.304-9.594-9.594 0-2.233 1.6-6.358 4.279-11.034 2.392-4.173 4.524-6.857 5.315-7.519.791.662 2.923 3.345 5.315 7.519 2.679 4.676 4.279 8.801 4.279 11.034 0 5.29-4.304 9.594-9.594 9.594zm12.518-10.21a4.24 4.24 0 0 1-1.09-.143c-.207-2.066-1.186-4.634-2.256-6.925 1.042-2.328 2.589-4.622 3.345-5.498.477.55 1.322 1.709 2.262 3.37 1.214 2.147 1.939 4.014 1.939 4.995 0 2.316-1.884 4.2-4.2 4.2z"/><path fill="#fff" opacity=".54" d="M15.011 16.073a.938.938 0 0 0-1.281.343l-4.21 7.293a.938.938 0 0 0 1.624.938l4.21-7.293a.938.938 0 0 0-.343-1.281zM10.094 17.937a.94.94 0 0 0-1.876 0c0 .516.421.938.938.938s.938-.421.938-.938zM15.406 22.312c-.516 0-.938.421-.938.937s.421.938.938.938a.938.938 0 0 0 0-1.875z"/></svg>