<svg xmlns="http://www.w3.org/2000/svg" width="20" height="20" viewBox="0 0 32 32"><path fill="#fff" opacity=".54" d="M18.489 4.12c.206-.391.324-.836.324-1.308 0-1.551-1.262-2.813-2.813-2.813s-2.813 1.262-2.813 2.813c0 .472.117.917.324 1.308C6.947 5.298 1.95 11.051 1.95 17.949c0 7.747 6.303 14.05 14.05 14.05s14.05-6.303 14.05-14.05c0-6.898-4.997-12.651-11.561-13.829zM16 1.875c.517 0 .938.421.938.938s-.421.938-.938.938c-.517 0-.938-.421-.938-.938s.421-.938.938-.938zm0 28.25c-6.713 0-12.175-5.462-12.175-12.175S9.287 5.775 16 5.775s12.175 5.462 12.175 12.175c0 6.713-5.462 12.175-12.175 12.175z"/><path fill="#fff" opacity=".54" d="m23.332 10.69-.04-.044c-.014-.014-.031-.028-.047-.042A10.293 10.293 0 0 0 16 7.626a10.29 10.29 0 0 0-7.267 2.998l-.025.022-.019.021a10.292 10.292 0 0 0-3.014 7.284c0 .518.42.937.938.937h1.063a.937.937 0 1 0-.001-1.875h-.073a8.415 8.415 0 0 1 1.805-4.342l.052.052a.935.935 0 0 0 1.326 0 .938.938 0 0 0 0-1.326l-.05-.05a8.407 8.407 0 0 1 4.328-1.794v.073a.938.938 0 0 0 1.876 0v-.073a8.405 8.405 0 0 1 4.327 1.795l-.05.05a.938.938 0 0 0 1.326 1.326l.051-.051a8.408 8.408 0 0 1 1.804 4.329h-.084a.937.937 0 1 0 0 1.875h1.076a.937.937 0 0 0 .936-.939 10.29 10.29 0 0 0-2.993-7.246z"/><path fill="#fff" opacity=".54" d="M20.251 13.698a.938.938 0 0 0-1.326 0l-3.915 3.915a2.8 2.8 0 0 0-1.407-.268.937.937 0 1 0 .131 1.87.936.936 0 0 1 1.001.989.937.937 0 0 0 1.872.109 2.813 2.813 0 0 0-.271-1.374l3.915-3.915a.938.938 0 0 0 0-1.326zM21.375 24.688h-10.75a.938.938 0 1 0 0 1.875h10.75a.937.937 0 0 0 0-1.875z"/></svg>