<svg xmlns="http://www.w3.org/2000/svg" width="20" height="20" viewBox="0 0 32 32"><path fill="#fff" opacity=".54" d="M25.316 2.643a6.707 6.707 0 0 0-4.184 1.472.937.937 0 1 0 1.174 1.462 4.827 4.827 0 0 1 3.011-1.059c2.652 0 4.809 2.157 4.809 4.809s-2.158 4.809-4.809 4.809H7.689a.938.938 0 0 0 0 1.876h17.628c3.686 0 6.684-2.999 6.684-6.684s-2.999-6.684-6.684-6.684z"/><path fill="#fff" opacity=".54" d="M5.891 12.268h10.015a.937.937 0 0 0 0-1.876H5.891a.938.938 0 0 0 0 1.876zM15.643 17.893H.937a.938.938 0 0 0 0 1.875h14.706c2.126 0 3.857 1.73 3.857 3.857s-1.73 3.857-3.857 3.857a3.872 3.872 0 0 1-2.414-.849.937.937 0 1 0-1.174 1.462 5.75 5.75 0 0 0 3.588 1.262c3.16 0 5.732-2.571 5.732-5.732s-2.571-5.732-5.732-5.732zM.938 12.268h1.265a.938.938 0 0 0 0-1.876H.938a.938.938 0 0 0 0 1.876z"/><path fill="#fff" opacity=".54" d="M12.25 22.563a.938.938 0 0 0-.938-.938H5.687a.938.938 0 0 0 0 1.875h5.625c.518 0 .938-.42.938-.937z"/></svg>